<mxfile host="app.diagrams.net" modified="2024-04-29T10:45:46.886Z" agent="Mozilla/5.0 (Macintosh; Intel Mac OS X 10_15_7) AppleWebKit/537.36 (KHTML, like Gecko) Chrome/124.0.0.0 Safari/537.36" etag="gQyvpJehuOkXYGCSiyhK" version="24.2.8" type="github">
  <diagram name="Page-1" id="DchbOuEF7zms2KuCFp6J">
    <mxGraphModel dx="984" dy="659" grid="1" gridSize="10" guides="1" tooltips="1" connect="1" arrows="1" fold="1" page="1" pageScale="1" pageWidth="850" pageHeight="1100" math="0" shadow="0">
      <root>
        <mxCell id="0" />
        <mxCell id="1" parent="0" />
        <mxCell id="Jhc_Aj3dw_dB9JyX6mIm-1" value="" style="rounded=1;whiteSpace=wrap;html=1;" parent="1" vertex="1">
          <mxGeometry x="226" y="469" width="120" height="230" as="geometry" />
        </mxCell>
        <mxCell id="Jhc_Aj3dw_dB9JyX6mIm-2" value="" style="rounded=1;whiteSpace=wrap;html=1;fillColor=#000000;strokeColor=#b85450;fontStyle=1" parent="1" vertex="1">
          <mxGeometry x="266" y="479" width="40" height="10" as="geometry" />
        </mxCell>
        <mxCell id="Jhc_Aj3dw_dB9JyX6mIm-3" value="&lt;span style=&quot;font-size: 15px;&quot;&gt;Hey, ivan!&amp;nbsp;&lt;/span&gt;" style="text;strokeColor=none;fillColor=none;html=1;fontSize=24;fontStyle=1;verticalAlign=middle;align=left;" parent="1" vertex="1">
          <mxGeometry x="236" y="519" width="100" height="40" as="geometry" />
        </mxCell>
        <UserObject label="&lt;font style=&quot;font-size: 9px;&quot;&gt;Home&lt;/font&gt;" placeholders="1" name="Variable" id="Jhc_Aj3dw_dB9JyX6mIm-4">
          <mxCell style="text;html=1;strokeColor=none;fillColor=none;align=center;verticalAlign=middle;whiteSpace=wrap;overflow=hidden;fontStyle=1" parent="1" vertex="1">
            <mxGeometry x="246" y="489" width="80" height="20" as="geometry" />
          </mxCell>
        </UserObject>
        <mxCell id="Jhc_Aj3dw_dB9JyX6mIm-5" value="" style="rounded=1;whiteSpace=wrap;html=1;" parent="1" vertex="1">
          <mxGeometry x="96" y="469" width="120" height="230" as="geometry" />
        </mxCell>
        <mxCell id="Jhc_Aj3dw_dB9JyX6mIm-6" value="" style="rounded=1;whiteSpace=wrap;html=1;fillColor=#000000;strokeColor=#b85450;" parent="1" vertex="1">
          <mxGeometry x="136" y="479" width="40" height="10" as="geometry" />
        </mxCell>
        <mxCell id="Jhc_Aj3dw_dB9JyX6mIm-7" value="" style="rounded=1;whiteSpace=wrap;html=1;" parent="1" vertex="1">
          <mxGeometry x="111" y="569" width="90" height="20" as="geometry" />
        </mxCell>
        <mxCell id="Jhc_Aj3dw_dB9JyX6mIm-8" value="" style="rounded=1;whiteSpace=wrap;html=1;" parent="1" vertex="1">
          <mxGeometry x="111" y="599" width="90" height="20" as="geometry" />
        </mxCell>
        <mxCell id="Jhc_Aj3dw_dB9JyX6mIm-9" value="Sign In" style="rounded=1;whiteSpace=wrap;html=1;fillColor=#fff2cc;strokeColor=#d6b656;" parent="1" vertex="1">
          <mxGeometry x="111" y="629" width="90" height="20" as="geometry" />
        </mxCell>
        <UserObject label="&lt;font style=&quot;font-size: 7px;&quot;&gt;Sign Up&lt;/font&gt;" link="https://www.draw.io" id="Jhc_Aj3dw_dB9JyX6mIm-10">
          <mxCell style="text;html=1;strokeColor=none;fillColor=none;whiteSpace=wrap;align=center;verticalAlign=middle;fontColor=#0000EE;fontStyle=4;" parent="1" vertex="1">
            <mxGeometry x="126" y="639" width="60" height="40" as="geometry" />
          </mxCell>
        </UserObject>
        <mxCell id="Jhc_Aj3dw_dB9JyX6mIm-11" value="&lt;span style=&quot;font-size: 15px;&quot;&gt;Get Started!&lt;/span&gt;" style="text;strokeColor=none;fillColor=none;html=1;fontSize=24;fontStyle=1;verticalAlign=middle;align=center;" parent="1" vertex="1">
          <mxGeometry x="106" y="519" width="100" height="40" as="geometry" />
        </mxCell>
        <UserObject label="&lt;font style=&quot;font-size: 9px;&quot;&gt;Email&lt;/font&gt;" placeholders="1" name="Variable" id="Jhc_Aj3dw_dB9JyX6mIm-12">
          <mxCell style="text;html=1;strokeColor=none;fillColor=none;align=center;verticalAlign=middle;whiteSpace=wrap;overflow=hidden;" parent="1" vertex="1">
            <mxGeometry x="86" y="569" width="80" height="20" as="geometry" />
          </mxCell>
        </UserObject>
        <UserObject label="&lt;font style=&quot;font-size: 9px;&quot;&gt;Password&lt;/font&gt;" placeholders="1" name="Variable" id="Jhc_Aj3dw_dB9JyX6mIm-13">
          <mxCell style="text;html=1;strokeColor=none;fillColor=none;align=center;verticalAlign=middle;whiteSpace=wrap;overflow=hidden;" parent="1" vertex="1">
            <mxGeometry x="96" y="599" width="80" height="20" as="geometry" />
          </mxCell>
        </UserObject>
        <mxCell id="Jhc_Aj3dw_dB9JyX6mIm-14" value="" style="sketch=0;pointerEvents=1;shadow=0;dashed=0;html=1;strokeColor=#9673a6;fillColor=#e1d5e7;labelPosition=center;verticalLabelPosition=bottom;verticalAlign=top;outlineConnect=0;align=center;shape=mxgraph.office.concepts.home;fontStyle=1" parent="1" vertex="1">
          <mxGeometry x="235.74" y="679" width="10.26" height="10" as="geometry" />
        </mxCell>
        <mxCell id="Jhc_Aj3dw_dB9JyX6mIm-15" value="" style="sketch=0;pointerEvents=1;shadow=0;dashed=0;html=1;strokeColor=none;fillColor=#505050;labelPosition=center;verticalLabelPosition=bottom;verticalAlign=top;outlineConnect=0;align=center;shape=mxgraph.office.concepts.calculator;fontStyle=1" parent="1" vertex="1">
          <mxGeometry x="266" y="679" width="6.95" height="10" as="geometry" />
        </mxCell>
        <mxCell id="Jhc_Aj3dw_dB9JyX6mIm-16" value="" style="shape=mxgraph.signs.food.fast_food;html=1;pointerEvents=1;fillColor=#505050;strokeColor=none;verticalLabelPosition=bottom;verticalAlign=top;align=center;fontStyle=1" parent="1" vertex="1">
          <mxGeometry x="294.73" y="679" width="11.27" height="10" as="geometry" />
        </mxCell>
        <mxCell id="Jhc_Aj3dw_dB9JyX6mIm-17" value="" style="shape=mxgraph.signs.food.restaurant_2;html=1;pointerEvents=1;fillColor=#505050;strokeColor=none;verticalLabelPosition=bottom;verticalAlign=top;align=center;fontStyle=1" parent="1" vertex="1">
          <mxGeometry x="321" y="679" width="5" height="10" as="geometry" />
        </mxCell>
        <mxCell id="Jhc_Aj3dw_dB9JyX6mIm-18" value="" style="verticalLabelPosition=bottom;shadow=0;dashed=0;align=center;html=1;verticalAlign=top;strokeWidth=1;shape=mxgraph.mockup.markup.line;strokeColor=#000000;" parent="1" vertex="1">
          <mxGeometry x="226" y="659" width="120" height="20" as="geometry" />
        </mxCell>
        <mxCell id="Jhc_Aj3dw_dB9JyX6mIm-19" value="" style="shape=image;html=1;verticalAlign=top;verticalLabelPosition=bottom;labelBackgroundColor=#ffffff;imageAspect=0;aspect=fixed;image=https://cdn3.iconfinder.com/data/icons/user-interface-169/32/logout-128.png;fontStyle=1" parent="1" vertex="1">
          <mxGeometry x="326" y="494" width="10" height="10" as="geometry" />
        </mxCell>
        <mxCell id="Jhc_Aj3dw_dB9JyX6mIm-20" value="&lt;font style=&quot;font-size: 13px;&quot;&gt;Ready to get in&lt;/font&gt;&lt;div style=&quot;line-height: 40%;&quot;&gt;&lt;font style=&quot;font-size: 13px;&quot;&gt;the Zone?&lt;/font&gt;&lt;/div&gt;" style="text;strokeColor=none;fillColor=none;html=1;fontSize=24;fontStyle=1;verticalAlign=middle;align=left;" parent="1" vertex="1">
          <mxGeometry x="235.74" y="549" width="100" height="40" as="geometry" />
        </mxCell>
        <mxCell id="Jhc_Aj3dw_dB9JyX6mIm-21" value="" style="rounded=1;whiteSpace=wrap;html=1;" parent="1" vertex="1">
          <mxGeometry x="356" y="469" width="120" height="230" as="geometry" />
        </mxCell>
        <mxCell id="Jhc_Aj3dw_dB9JyX6mIm-22" value="" style="rounded=1;whiteSpace=wrap;html=1;fillColor=#000000;strokeColor=#b85450;fontStyle=1" parent="1" vertex="1">
          <mxGeometry x="396" y="479" width="40" height="10" as="geometry" />
        </mxCell>
        <UserObject label="&lt;font style=&quot;font-size: 9px;&quot;&gt;Calculator&lt;/font&gt;" placeholders="1" name="Variable" id="Jhc_Aj3dw_dB9JyX6mIm-23">
          <mxCell style="text;html=1;strokeColor=none;fillColor=none;align=center;verticalAlign=middle;whiteSpace=wrap;overflow=hidden;fontStyle=1" parent="1" vertex="1">
            <mxGeometry x="376" y="489" width="80" height="20" as="geometry" />
          </mxCell>
        </UserObject>
        <mxCell id="Jhc_Aj3dw_dB9JyX6mIm-24" value="" style="sketch=0;pointerEvents=1;shadow=0;dashed=0;html=1;strokeColor=none;fillColor=#505050;labelPosition=center;verticalLabelPosition=bottom;verticalAlign=top;outlineConnect=0;align=center;shape=mxgraph.office.concepts.home;fontStyle=1" parent="1" vertex="1">
          <mxGeometry x="365.74" y="679" width="10.26" height="10" as="geometry" />
        </mxCell>
        <mxCell id="Jhc_Aj3dw_dB9JyX6mIm-25" value="" style="sketch=0;pointerEvents=1;shadow=0;dashed=0;html=1;strokeColor=#9673a6;fillColor=#e1d5e7;labelPosition=center;verticalLabelPosition=bottom;verticalAlign=top;outlineConnect=0;align=center;shape=mxgraph.office.concepts.calculator;fontStyle=1" parent="1" vertex="1">
          <mxGeometry x="396" y="679" width="6.95" height="10" as="geometry" />
        </mxCell>
        <mxCell id="Jhc_Aj3dw_dB9JyX6mIm-26" value="" style="shape=mxgraph.signs.food.fast_food;html=1;pointerEvents=1;fillColor=#505050;strokeColor=none;verticalLabelPosition=bottom;verticalAlign=top;align=center;fontStyle=1" parent="1" vertex="1">
          <mxGeometry x="424.73" y="679" width="11.27" height="10" as="geometry" />
        </mxCell>
        <mxCell id="Jhc_Aj3dw_dB9JyX6mIm-27" value="" style="shape=mxgraph.signs.food.restaurant_2;html=1;pointerEvents=1;fillColor=#505050;strokeColor=none;verticalLabelPosition=bottom;verticalAlign=top;align=center;fontStyle=1" parent="1" vertex="1">
          <mxGeometry x="451" y="679" width="5" height="10" as="geometry" />
        </mxCell>
        <mxCell id="Jhc_Aj3dw_dB9JyX6mIm-28" value="" style="verticalLabelPosition=bottom;shadow=0;dashed=0;align=center;html=1;verticalAlign=top;strokeWidth=1;shape=mxgraph.mockup.markup.line;strokeColor=#000000;" parent="1" vertex="1">
          <mxGeometry x="356" y="659" width="120" height="20" as="geometry" />
        </mxCell>
        <mxCell id="Jhc_Aj3dw_dB9JyX6mIm-29" value="" style="rounded=1;whiteSpace=wrap;html=1;" parent="1" vertex="1">
          <mxGeometry x="486" y="469" width="120" height="230" as="geometry" />
        </mxCell>
        <mxCell id="Jhc_Aj3dw_dB9JyX6mIm-30" value="" style="rounded=1;whiteSpace=wrap;html=1;fillColor=#000000;strokeColor=#b85450;fontStyle=1" parent="1" vertex="1">
          <mxGeometry x="526" y="479" width="40" height="10" as="geometry" />
        </mxCell>
        <UserObject label="&lt;font style=&quot;font-size: 9px;&quot;&gt;FoodChecker&lt;/font&gt;" placeholders="1" name="Variable" id="Jhc_Aj3dw_dB9JyX6mIm-31">
          <mxCell style="text;html=1;strokeColor=none;fillColor=none;align=center;verticalAlign=middle;whiteSpace=wrap;overflow=hidden;fontStyle=1" parent="1" vertex="1">
            <mxGeometry x="506" y="489" width="80" height="20" as="geometry" />
          </mxCell>
        </UserObject>
        <mxCell id="Jhc_Aj3dw_dB9JyX6mIm-32" value="" style="sketch=0;pointerEvents=1;shadow=0;dashed=0;html=1;strokeColor=none;fillColor=#505050;labelPosition=center;verticalLabelPosition=bottom;verticalAlign=top;outlineConnect=0;align=center;shape=mxgraph.office.concepts.home;fontStyle=1" parent="1" vertex="1">
          <mxGeometry x="495.74" y="679" width="10.26" height="10" as="geometry" />
        </mxCell>
        <mxCell id="Jhc_Aj3dw_dB9JyX6mIm-33" value="" style="shape=mxgraph.signs.food.fast_food;html=1;pointerEvents=1;fillColor=#e1d5e7;strokeColor=#9673a6;verticalLabelPosition=bottom;verticalAlign=top;align=center;fontStyle=1" parent="1" vertex="1">
          <mxGeometry x="554.73" y="679" width="11.27" height="10" as="geometry" />
        </mxCell>
        <mxCell id="Jhc_Aj3dw_dB9JyX6mIm-34" value="" style="shape=mxgraph.signs.food.restaurant_2;html=1;pointerEvents=1;fillColor=#505050;strokeColor=none;verticalLabelPosition=bottom;verticalAlign=top;align=center;fontStyle=1" parent="1" vertex="1">
          <mxGeometry x="581" y="679" width="5" height="10" as="geometry" />
        </mxCell>
        <mxCell id="Jhc_Aj3dw_dB9JyX6mIm-35" value="" style="verticalLabelPosition=bottom;shadow=0;dashed=0;align=center;html=1;verticalAlign=top;strokeWidth=1;shape=mxgraph.mockup.markup.line;strokeColor=#000000;" parent="1" vertex="1">
          <mxGeometry x="486" y="659" width="120" height="20" as="geometry" />
        </mxCell>
        <mxCell id="Jhc_Aj3dw_dB9JyX6mIm-36" value="" style="sketch=0;pointerEvents=1;shadow=0;dashed=0;html=1;strokeColor=none;fillColor=#505050;labelPosition=center;verticalLabelPosition=bottom;verticalAlign=top;outlineConnect=0;align=center;shape=mxgraph.office.concepts.calculator;fontStyle=1" parent="1" vertex="1">
          <mxGeometry x="526" y="679" width="6.95" height="10" as="geometry" />
        </mxCell>
        <mxCell id="Jhc_Aj3dw_dB9JyX6mIm-37" value="" style="rounded=1;whiteSpace=wrap;html=1;" parent="1" vertex="1">
          <mxGeometry x="616" y="469" width="120" height="230" as="geometry" />
        </mxCell>
        <mxCell id="Jhc_Aj3dw_dB9JyX6mIm-38" value="" style="rounded=1;whiteSpace=wrap;html=1;fillColor=#000000;strokeColor=#b85450;fontStyle=1" parent="1" vertex="1">
          <mxGeometry x="656" y="479" width="40" height="10" as="geometry" />
        </mxCell>
        <UserObject label="&lt;font style=&quot;font-size: 9px;&quot;&gt;NutritionFacts&lt;/font&gt;" placeholders="1" name="Variable" id="Jhc_Aj3dw_dB9JyX6mIm-39">
          <mxCell style="text;html=1;strokeColor=none;fillColor=none;align=center;verticalAlign=middle;whiteSpace=wrap;overflow=hidden;fontStyle=1" parent="1" vertex="1">
            <mxGeometry x="636" y="489" width="80" height="20" as="geometry" />
          </mxCell>
        </UserObject>
        <mxCell id="Jhc_Aj3dw_dB9JyX6mIm-40" value="" style="sketch=0;pointerEvents=1;shadow=0;dashed=0;html=1;strokeColor=none;fillColor=#505050;labelPosition=center;verticalLabelPosition=bottom;verticalAlign=top;outlineConnect=0;align=center;shape=mxgraph.office.concepts.home;fontStyle=1" parent="1" vertex="1">
          <mxGeometry x="625.74" y="679" width="10.26" height="10" as="geometry" />
        </mxCell>
        <mxCell id="Jhc_Aj3dw_dB9JyX6mIm-41" value="" style="shape=mxgraph.signs.food.restaurant_2;html=1;pointerEvents=1;fillColor=#e1d5e7;strokeColor=#9673a6;verticalLabelPosition=bottom;verticalAlign=top;align=center;fontStyle=1" parent="1" vertex="1">
          <mxGeometry x="711" y="679" width="5" height="10" as="geometry" />
        </mxCell>
        <mxCell id="Jhc_Aj3dw_dB9JyX6mIm-42" value="" style="verticalLabelPosition=bottom;shadow=0;dashed=0;align=center;html=1;verticalAlign=top;strokeWidth=1;shape=mxgraph.mockup.markup.line;strokeColor=#000000;" parent="1" vertex="1">
          <mxGeometry x="616" y="659" width="120" height="20" as="geometry" />
        </mxCell>
        <mxCell id="Jhc_Aj3dw_dB9JyX6mIm-43" value="" style="sketch=0;pointerEvents=1;shadow=0;dashed=0;html=1;strokeColor=none;fillColor=#505050;labelPosition=center;verticalLabelPosition=bottom;verticalAlign=top;outlineConnect=0;align=center;shape=mxgraph.office.concepts.calculator;fontStyle=1" parent="1" vertex="1">
          <mxGeometry x="656" y="679" width="6.95" height="10" as="geometry" />
        </mxCell>
        <mxCell id="Jhc_Aj3dw_dB9JyX6mIm-44" value="" style="shape=mxgraph.signs.food.fast_food;html=1;pointerEvents=1;fillColor=#505050;strokeColor=none;verticalLabelPosition=bottom;verticalAlign=top;align=center;fontStyle=1" parent="1" vertex="1">
          <mxGeometry x="684.73" y="679" width="11.27" height="10" as="geometry" />
        </mxCell>
        <mxCell id="Jhc_Aj3dw_dB9JyX6mIm-45" value="" style="dashed=0;align=center;fontSize=12;shape=rect;fillColor=#ffffff;strokeColor=#cccccc;whiteSpace=wrap;html=1;" parent="1" vertex="1">
          <mxGeometry x="370.61" y="519" width="90.26" height="20" as="geometry" />
        </mxCell>
        <mxCell id="Jhc_Aj3dw_dB9JyX6mIm-46" value="&lt;font style=&quot;font-size: 9px;&quot;&gt;Nutrient&lt;/font&gt;" style="text;fontColor=#000000;verticalAlign=middle;spacingLeft=13;fontSize=14;whiteSpace=wrap;html=1;align=left;" parent="Jhc_Aj3dw_dB9JyX6mIm-45" vertex="1">
          <mxGeometry width="90.26" height="20" as="geometry" />
        </mxCell>
        <mxCell id="Jhc_Aj3dw_dB9JyX6mIm-47" value="" style="dashed=0;html=1;shape=mxgraph.gmdl.triangle;fillColor=#cccccc;strokeColor=none;" parent="Jhc_Aj3dw_dB9JyX6mIm-45" vertex="1">
          <mxGeometry x="1" y="0.5" width="10" height="5" relative="1" as="geometry">
            <mxPoint x="-25" y="-2.5" as="offset" />
          </mxGeometry>
        </mxCell>
        <mxCell id="Jhc_Aj3dw_dB9JyX6mIm-48" value="" style="rounded=1;whiteSpace=wrap;html=1;" parent="1" vertex="1">
          <mxGeometry x="369.73" y="569" width="90" height="20" as="geometry" />
        </mxCell>
        <UserObject label="&lt;font style=&quot;font-size: 8px;&quot;&gt;Nutrient Value by label&lt;/font&gt;" placeholders="1" name="Variable" id="Jhc_Aj3dw_dB9JyX6mIm-49">
          <mxCell style="text;html=1;strokeColor=none;fillColor=none;align=left;verticalAlign=middle;whiteSpace=wrap;overflow=hidden;fontStyle=0" parent="1" vertex="1">
            <mxGeometry x="367.86" y="549" width="96.27" height="20" as="geometry" />
          </mxCell>
        </UserObject>
        <UserObject label="&lt;font style=&quot;font-size: 8px;&quot;&gt;Food blocks&lt;/font&gt;" placeholders="1" name="Variable" id="Jhc_Aj3dw_dB9JyX6mIm-50">
          <mxCell style="text;html=1;strokeColor=none;fillColor=none;align=left;verticalAlign=middle;whiteSpace=wrap;overflow=hidden;" parent="1" vertex="1">
            <mxGeometry x="367.86" y="589" width="96.27" height="20" as="geometry" />
          </mxCell>
        </UserObject>
        <mxCell id="Jhc_Aj3dw_dB9JyX6mIm-51" value="" style="rounded=1;whiteSpace=wrap;html=1;" parent="1" vertex="1">
          <mxGeometry x="367.86" y="609" width="90" height="20" as="geometry" />
        </mxCell>
        <mxCell id="Jhc_Aj3dw_dB9JyX6mIm-52" value="Calculate" style="rounded=1;whiteSpace=wrap;html=1;fillColor=#fff2cc;strokeColor=#d6b656;" parent="1" vertex="1">
          <mxGeometry x="367.86" y="639" width="90" height="20" as="geometry" />
        </mxCell>
        <UserObject label="&lt;font style=&quot;font-size: 8px;&quot;&gt;Check nutrients for non-packaged food:&lt;/font&gt;" placeholders="1" name="Variable" id="Jhc_Aj3dw_dB9JyX6mIm-53">
          <mxCell style="text;html=1;strokeColor=none;fillColor=none;align=left;verticalAlign=middle;whiteSpace=wrap;overflow=hidden;fontStyle=0" parent="1" vertex="1">
            <mxGeometry x="497.86" y="534" width="96.27" height="40" as="geometry" />
          </mxCell>
        </UserObject>
        <mxCell id="Jhc_Aj3dw_dB9JyX6mIm-54" value="" style="rounded=1;whiteSpace=wrap;html=1;" parent="1" vertex="1">
          <mxGeometry x="497.86" y="574" width="90" height="20" as="geometry" />
        </mxCell>
        <mxCell id="Jhc_Aj3dw_dB9JyX6mIm-55" value="Search" style="rounded=1;whiteSpace=wrap;html=1;fillColor=#fff2cc;strokeColor=#d6b656;" parent="1" vertex="1">
          <mxGeometry x="497.86" y="599" width="90" height="20" as="geometry" />
        </mxCell>
        <UserObject label="&lt;font style=&quot;font-size: 8px;&quot;&gt;Enter an ingredient list:&lt;/font&gt;" placeholders="1" name="Variable" id="Jhc_Aj3dw_dB9JyX6mIm-56">
          <mxCell style="text;html=1;strokeColor=none;fillColor=none;align=left;verticalAlign=middle;whiteSpace=wrap;overflow=hidden;fontStyle=0" parent="1" vertex="1">
            <mxGeometry x="626" y="504" width="96.27" height="40" as="geometry" />
          </mxCell>
        </UserObject>
        <mxCell id="Jhc_Aj3dw_dB9JyX6mIm-57" value="" style="rounded=1;whiteSpace=wrap;html=1;" parent="1" vertex="1">
          <mxGeometry x="626" y="539" width="90" height="30" as="geometry" />
        </mxCell>
        <mxCell id="Jhc_Aj3dw_dB9JyX6mIm-58" value="Analyse" style="rounded=1;whiteSpace=wrap;html=1;fillColor=#fff2cc;strokeColor=#d6b656;" parent="1" vertex="1">
          <mxGeometry x="626" y="579" width="90" height="20" as="geometry" />
        </mxCell>
        <mxCell id="Jhc_Aj3dw_dB9JyX6mIm-59" value="" style="shape=image;html=1;verticalAlign=top;verticalLabelPosition=bottom;labelBackgroundColor=#ffffff;imageAspect=0;aspect=fixed;image=https://cdn4.iconfinder.com/data/icons/essential-app-2/16/pie-chart-stat-graph-128.png;imageBackground=default;" parent="1" vertex="1">
          <mxGeometry x="626" y="609" width="40" height="40" as="geometry" />
        </mxCell>
        <UserObject label="&lt;ul&gt;&lt;li&gt;&lt;font style=&quot;font-size: 8px;&quot;&gt;30 % Proteins&lt;/font&gt;&lt;/li&gt;&lt;li&gt;&lt;font style=&quot;font-size: 8px;&quot;&gt;40 % Carbs&lt;/font&gt;&lt;/li&gt;&lt;li&gt;&lt;span style=&quot;font-size: 8px;&quot;&gt;30 % Fats&lt;/span&gt;&lt;/li&gt;&lt;/ul&gt;" placeholders="1" name="Variable" id="Jhc_Aj3dw_dB9JyX6mIm-60">
          <mxCell style="text;html=1;strokeColor=none;fillColor=none;align=left;verticalAlign=middle;whiteSpace=wrap;overflow=hidden;fontStyle=0" parent="1" vertex="1">
            <mxGeometry x="640.37" y="589" width="100" height="70" as="geometry" />
          </mxCell>
        </UserObject>
        <mxCell id="Jhc_Aj3dw_dB9JyX6mIm-61" value="" style="rounded=1;whiteSpace=wrap;html=1;fillColor=#e1d5e7;strokeColor=#9673a6;" parent="1" vertex="1">
          <mxGeometry x="312.11" y="80" width="224.5" height="60" as="geometry" />
        </mxCell>
        <mxCell id="Jhc_Aj3dw_dB9JyX6mIm-62" value="&lt;span style=&quot;font-size: 15px;&quot;&gt;Login / Register&lt;/span&gt;" style="text;strokeColor=none;fillColor=none;html=1;fontSize=24;fontStyle=1;verticalAlign=middle;align=center;" parent="1" vertex="1">
          <mxGeometry x="374.36" y="90" width="100" height="40" as="geometry" />
        </mxCell>
        <mxCell id="Jhc_Aj3dw_dB9JyX6mIm-63" value="" style="endArrow=classic;html=1;rounded=0;exitX=0.5;exitY=1;exitDx=0;exitDy=0;" parent="1" edge="1">
          <mxGeometry width="50" height="50" relative="1" as="geometry">
            <mxPoint x="412.33000000000004" y="140" as="sourcePoint" />
            <mxPoint x="412.72" y="190" as="targetPoint" />
          </mxGeometry>
        </mxCell>
        <mxCell id="Jhc_Aj3dw_dB9JyX6mIm-64" value="" style="rounded=1;whiteSpace=wrap;html=1;fillColor=#fff2cc;strokeColor=#d6b656;" parent="1" vertex="1">
          <mxGeometry x="340" y="190" width="164.5" height="60" as="geometry" />
        </mxCell>
        <mxCell id="Jhc_Aj3dw_dB9JyX6mIm-65" value="&lt;span style=&quot;font-size: 15px;&quot;&gt;Home&lt;/span&gt;" style="text;strokeColor=none;fillColor=none;html=1;fontSize=24;fontStyle=1;verticalAlign=middle;align=center;" parent="1" vertex="1">
          <mxGeometry x="372.25" y="200" width="100" height="40" as="geometry" />
        </mxCell>
        <mxCell id="Jhc_Aj3dw_dB9JyX6mIm-66" value="" style="rounded=1;whiteSpace=wrap;html=1;fillColor=#fff2cc;strokeColor=#d6b656;" parent="1" vertex="1">
          <mxGeometry x="50.000000000000014" y="305" width="164.5" height="60" as="geometry" />
        </mxCell>
        <mxCell id="w9wC0CW7JmbSZfsh23Jj-12" style="edgeStyle=orthogonalEdgeStyle;rounded=0;orthogonalLoop=1;jettySize=auto;html=1;exitX=1;exitY=0.75;exitDx=0;exitDy=0;" edge="1" parent="1" source="Jhc_Aj3dw_dB9JyX6mIm-67">
          <mxGeometry relative="1" as="geometry">
            <mxPoint x="640" y="355" as="targetPoint" />
          </mxGeometry>
        </mxCell>
        <mxCell id="Jhc_Aj3dw_dB9JyX6mIm-67" value="" style="rounded=1;whiteSpace=wrap;html=1;fillColor=#fff2cc;strokeColor=#d6b656;" parent="1" vertex="1">
          <mxGeometry x="343" y="310" width="164.5" height="60" as="geometry" />
        </mxCell>
        <mxCell id="Jhc_Aj3dw_dB9JyX6mIm-68" value="" style="rounded=1;whiteSpace=wrap;html=1;fillColor=#fff2cc;strokeColor=#d6b656;" parent="1" vertex="1">
          <mxGeometry x="640.37" y="310" width="164.5" height="60" as="geometry" />
        </mxCell>
        <mxCell id="Jhc_Aj3dw_dB9JyX6mIm-69" value="&lt;span style=&quot;font-size: 15px;&quot;&gt;Calculator&lt;/span&gt;" style="text;strokeColor=none;fillColor=none;html=1;fontSize=24;fontStyle=1;verticalAlign=middle;align=center;" parent="1" vertex="1">
          <mxGeometry x="82.25000000000001" y="315" width="100" height="40" as="geometry" />
        </mxCell>
        <mxCell id="Jhc_Aj3dw_dB9JyX6mIm-70" value="&lt;span style=&quot;font-size: 15px;&quot;&gt;Food Checker&lt;/span&gt;" style="text;strokeColor=none;fillColor=none;html=1;fontSize=24;fontStyle=1;verticalAlign=middle;align=center;" parent="1" vertex="1">
          <mxGeometry x="374.36" y="320" width="100" height="40" as="geometry" />
        </mxCell>
        <mxCell id="Jhc_Aj3dw_dB9JyX6mIm-71" value="&lt;span style=&quot;font-size: 15px;&quot;&gt;Nutrition Facts&lt;/span&gt;" style="text;strokeColor=none;fillColor=none;html=1;fontSize=24;fontStyle=1;verticalAlign=middle;align=center;" parent="1" vertex="1">
          <mxGeometry x="672.62" y="325" width="100" height="30" as="geometry" />
        </mxCell>
        <mxCell id="Jhc_Aj3dw_dB9JyX6mIm-72" value="" style="endArrow=classic;html=1;rounded=0;exitX=0.5;exitY=1;exitDx=0;exitDy=0;entryX=0.5;entryY=0;entryDx=0;entryDy=0;" parent="1" source="Jhc_Aj3dw_dB9JyX6mIm-64" target="Jhc_Aj3dw_dB9JyX6mIm-66" edge="1">
          <mxGeometry width="50" height="50" relative="1" as="geometry">
            <mxPoint x="400" y="460" as="sourcePoint" />
            <mxPoint x="450" y="410" as="targetPoint" />
          </mxGeometry>
        </mxCell>
        <mxCell id="Jhc_Aj3dw_dB9JyX6mIm-73" value="" style="endArrow=classic;html=1;rounded=0;exitX=0.5;exitY=1;exitDx=0;exitDy=0;entryX=0.5;entryY=0;entryDx=0;entryDy=0;" parent="1" source="Jhc_Aj3dw_dB9JyX6mIm-64" target="Jhc_Aj3dw_dB9JyX6mIm-67" edge="1">
          <mxGeometry width="50" height="50" relative="1" as="geometry">
            <mxPoint x="400" y="460" as="sourcePoint" />
            <mxPoint x="430" y="300" as="targetPoint" />
          </mxGeometry>
        </mxCell>
        <mxCell id="Jhc_Aj3dw_dB9JyX6mIm-74" value="" style="endArrow=classic;html=1;rounded=0;exitX=0.5;exitY=1;exitDx=0;exitDy=0;entryX=0.5;entryY=0;entryDx=0;entryDy=0;" parent="1" source="Jhc_Aj3dw_dB9JyX6mIm-64" target="Jhc_Aj3dw_dB9JyX6mIm-68" edge="1">
          <mxGeometry width="50" height="50" relative="1" as="geometry">
            <mxPoint x="400" y="460" as="sourcePoint" />
            <mxPoint x="620" y="290" as="targetPoint" />
          </mxGeometry>
        </mxCell>
        <mxCell id="Jhc_Aj3dw_dB9JyX6mIm-75" value="" style="endArrow=classic;html=1;rounded=0;exitX=0.691;exitY=-0.007;exitDx=0;exitDy=0;exitPerimeter=0;" parent="1" source="Jhc_Aj3dw_dB9JyX6mIm-64" edge="1">
          <mxGeometry width="50" height="50" relative="1" as="geometry">
            <mxPoint x="453" y="170" as="sourcePoint" />
            <mxPoint x="452.97" y="140" as="targetPoint" />
          </mxGeometry>
        </mxCell>
        <mxCell id="Jhc_Aj3dw_dB9JyX6mIm-76" value="&lt;b&gt;&lt;font style=&quot;font-size: 17px;&quot;&gt;1&lt;/font&gt;&lt;/b&gt;" style="text;html=1;align=center;verticalAlign=middle;resizable=0;points=[];autosize=1;strokeColor=none;fillColor=none;" parent="1" vertex="1">
          <mxGeometry x="276" y="95" width="30" height="30" as="geometry" />
        </mxCell>
        <mxCell id="Jhc_Aj3dw_dB9JyX6mIm-77" value="&lt;b&gt;&lt;font style=&quot;font-size: 17px;&quot;&gt;1&lt;/font&gt;&lt;/b&gt;" style="text;html=1;align=center;verticalAlign=middle;resizable=0;points=[];autosize=1;strokeColor=none;fillColor=none;" parent="1" vertex="1">
          <mxGeometry x="141" y="430" width="30" height="30" as="geometry" />
        </mxCell>
        <mxCell id="Jhc_Aj3dw_dB9JyX6mIm-78" value="&lt;b&gt;&lt;font style=&quot;font-size: 17px;&quot;&gt;2&lt;/font&gt;&lt;/b&gt;" style="text;html=1;align=center;verticalAlign=middle;resizable=0;points=[];autosize=1;strokeColor=none;fillColor=none;" parent="1" vertex="1">
          <mxGeometry x="305.74" y="205" width="30" height="30" as="geometry" />
        </mxCell>
        <mxCell id="Jhc_Aj3dw_dB9JyX6mIm-79" value="&lt;b&gt;&lt;font style=&quot;font-size: 17px;&quot;&gt;2&lt;/font&gt;&lt;/b&gt;" style="text;html=1;align=center;verticalAlign=middle;resizable=0;points=[];autosize=1;strokeColor=none;fillColor=none;" parent="1" vertex="1">
          <mxGeometry x="266" y="430" width="30" height="30" as="geometry" />
        </mxCell>
        <mxCell id="Jhc_Aj3dw_dB9JyX6mIm-80" value="&lt;b&gt;&lt;font style=&quot;font-size: 17px;&quot;&gt;3&lt;/font&gt;&lt;/b&gt;" style="text;html=1;align=center;verticalAlign=middle;resizable=0;points=[];autosize=1;strokeColor=none;fillColor=none;" parent="1" vertex="1">
          <mxGeometry x="96" y="275" width="30" height="30" as="geometry" />
        </mxCell>
        <mxCell id="Jhc_Aj3dw_dB9JyX6mIm-81" value="&lt;b&gt;&lt;font style=&quot;font-size: 17px;&quot;&gt;3&lt;/font&gt;&lt;/b&gt;" style="text;html=1;align=center;verticalAlign=middle;resizable=0;points=[];autosize=1;strokeColor=none;fillColor=none;" parent="1" vertex="1">
          <mxGeometry x="399.73" y="430" width="30" height="30" as="geometry" />
        </mxCell>
        <mxCell id="Jhc_Aj3dw_dB9JyX6mIm-82" value="&lt;b&gt;&lt;font style=&quot;font-size: 17px;&quot;&gt;4&lt;/font&gt;&lt;/b&gt;" style="text;html=1;align=center;verticalAlign=middle;resizable=0;points=[];autosize=1;strokeColor=none;fillColor=none;" parent="1" vertex="1">
          <mxGeometry x="384.47" y="280" width="30" height="30" as="geometry" />
        </mxCell>
        <mxCell id="Jhc_Aj3dw_dB9JyX6mIm-83" value="&lt;b&gt;&lt;font style=&quot;font-size: 17px;&quot;&gt;4&lt;/font&gt;&lt;/b&gt;" style="text;html=1;align=center;verticalAlign=middle;resizable=0;points=[];autosize=1;strokeColor=none;fillColor=none;" parent="1" vertex="1">
          <mxGeometry x="531" y="430" width="30" height="30" as="geometry" />
        </mxCell>
        <mxCell id="Jhc_Aj3dw_dB9JyX6mIm-84" value="&lt;b&gt;&lt;font style=&quot;font-size: 17px;&quot;&gt;5&lt;/font&gt;&lt;/b&gt;" style="text;html=1;align=center;verticalAlign=middle;resizable=0;points=[];autosize=1;strokeColor=none;fillColor=none;" parent="1" vertex="1">
          <mxGeometry x="722.27" y="275" width="30" height="30" as="geometry" />
        </mxCell>
        <mxCell id="Jhc_Aj3dw_dB9JyX6mIm-85" value="&lt;b&gt;&lt;font style=&quot;font-size: 17px;&quot;&gt;5&lt;/font&gt;&lt;/b&gt;" style="text;html=1;align=center;verticalAlign=middle;resizable=0;points=[];autosize=1;strokeColor=none;fillColor=none;" parent="1" vertex="1">
          <mxGeometry x="668.86" y="430" width="30" height="30" as="geometry" />
        </mxCell>
        <mxCell id="Jhc_Aj3dw_dB9JyX6mIm-86" value="&lt;font size=&quot;1&quot; style=&quot;&quot;&gt;&lt;b style=&quot;font-size: 20px;&quot;&gt;Functional Diagram for the Zone App&lt;/b&gt;&lt;/font&gt;" style="text;html=1;align=center;verticalAlign=middle;resizable=0;points=[];autosize=1;strokeColor=none;fillColor=none;" parent="1" vertex="1">
          <mxGeometry x="232.25" y="20" width="380" height="40" as="geometry" />
        </mxCell>
        <mxCell id="w9wC0CW7JmbSZfsh23Jj-2" style="edgeStyle=orthogonalEdgeStyle;rounded=0;orthogonalLoop=1;jettySize=auto;html=1;exitX=0;exitY=0.5;exitDx=0;exitDy=0;" edge="1" parent="1" source="Jhc_Aj3dw_dB9JyX6mIm-68">
          <mxGeometry relative="1" as="geometry">
            <mxPoint x="630.3699999999999" y="335" as="sourcePoint" />
            <mxPoint x="510" y="340" as="targetPoint" />
          </mxGeometry>
        </mxCell>
        <mxCell id="w9wC0CW7JmbSZfsh23Jj-7" style="edgeStyle=orthogonalEdgeStyle;rounded=0;orthogonalLoop=1;jettySize=auto;html=1;exitX=0;exitY=0.5;exitDx=0;exitDy=0;" edge="1" parent="1">
          <mxGeometry relative="1" as="geometry">
            <mxPoint x="344.5" y="334.5" as="sourcePoint" />
            <mxPoint x="214.5" y="334.5" as="targetPoint" />
          </mxGeometry>
        </mxCell>
        <mxCell id="w9wC0CW7JmbSZfsh23Jj-11" style="edgeStyle=orthogonalEdgeStyle;rounded=0;orthogonalLoop=1;jettySize=auto;html=1;exitX=1;exitY=0.75;exitDx=0;exitDy=0;" edge="1" parent="1" source="Jhc_Aj3dw_dB9JyX6mIm-66">
          <mxGeometry relative="1" as="geometry">
            <mxPoint x="340" y="350" as="targetPoint" />
          </mxGeometry>
        </mxCell>
      </root>
    </mxGraphModel>
  </diagram>
</mxfile>
